<?xml version="1.0" encoding="UTF-8"?>
<svg version="1.1" xmlns="http://www.w3.org/2000/svg" width="512" height="512">
<path d="M0 0 C1.01790619 0.00215515 2.03581238 0.0043103 3.08456421 0.00653076 C17.69363523 0.05620146 32.02575853 0.30709809 46.375 3.3125 C47.34985352 3.51117676 48.32470703 3.70985352 49.32910156 3.91455078 C97.7109774 14.03517194 141.69928269 35.9516877 177.375 70.3125 C178.3640332 71.26068604 178.3640332 71.26068604 179.37304688 72.22802734 C188.86130305 81.37247479 197.6012044 90.66984009 205.375 101.3125 C206.23306152 102.46355017 207.09113451 103.61459177 207.94921875 104.765625 C213.98736829 112.95680614 219.34595521 121.47054105 224.375 130.3125 C224.73948242 130.94430176 225.10396484 131.57610352 225.47949219 132.22705078 C247.08534998 169.97532572 256.85198095 212.74189997 256.6875 255.9375 C256.68534485 256.95540619 256.6831897 257.97331238 256.68096924 259.02206421 C256.63129854 273.63113523 256.38040191 287.96325853 253.375 302.3125 C253.07698486 303.77478027 253.07698486 303.77478027 252.77294922 305.26660156 C242.65232806 353.6484774 220.7358123 397.63678269 186.375 433.3125 C185.74287598 433.97185547 185.11075195 434.63121094 184.45947266 435.31054688 C175.31502521 444.79880305 166.01765991 453.5387044 155.375 461.3125 C154.22394983 462.17056152 153.07290823 463.02863451 151.921875 463.88671875 C143.73224019 469.92427396 135.22961724 475.30707302 126.375 480.3125 C125.66778809 480.7146875 124.96057617 481.116875 124.23193359 481.53125 C101.09654164 494.5566741 75.92537591 503.30551461 49.9375 508.625 C49.21860596 508.77235596 48.49971191 508.91971191 47.7590332 509.0715332 C33.08339502 511.86090125 18.55831162 512.66142619 3.64770508 512.62817383 C0.70811513 512.6250221 -2.2304558 512.64854926 -5.16992188 512.67382812 C-18.54306192 512.71848737 -31.43916711 511.51301542 -44.625 509.3125 C-46.33055054 509.03031616 -46.33055054 509.03031616 -48.07055664 508.74243164 C-91.33802759 500.97044532 -132.38793216 480.98345309 -165.625 452.3125 C-166.37007813 451.67828125 -167.11515625 451.0440625 -167.8828125 450.390625 C-181.38779833 438.57948485 -194.05918743 425.82889772 -204.625 411.3125 C-205.48149066 410.16255169 -206.33826433 409.01281411 -207.1953125 407.86328125 C-213.23534209 399.67315742 -218.61867614 391.16870382 -223.625 382.3125 C-224.0271875 381.60528809 -224.429375 380.89807617 -224.84375 380.16943359 C-237.8691741 357.03404164 -246.61801461 331.86287591 -251.9375 305.875 C-252.08485596 305.15610596 -252.23221191 304.43721191 -252.3840332 303.6965332 C-255.35789088 288.05024391 -255.99800362 272.57681954 -255.9375 256.6875 C-255.93534485 255.66959381 -255.9331897 254.65168762 -255.93096924 253.60293579 C-255.88129854 238.99386477 -255.63040191 224.66174147 -252.625 210.3125 C-252.42632324 209.33764648 -252.22764648 208.36279297 -252.02294922 207.35839844 C-241.90232806 158.9765226 -219.9858123 114.98821731 -185.625 79.3125 C-184.99287598 78.65314453 -184.36075195 77.99378906 -183.70947266 77.31445312 C-174.56502521 67.82619695 -165.26765991 59.0862956 -154.625 51.3125 C-153.47394983 50.45443848 -152.32290823 49.59636549 -151.171875 48.73828125 C-142.98224019 42.70072604 -134.47961724 37.31792698 -125.625 32.3125 C-124.91778809 31.9103125 -124.21057617 31.508125 -123.48193359 31.09375 C-100.34654164 18.0683259 -75.17537591 9.31948539 -49.1875 4 C-48.46860596 3.85264404 -47.74971191 3.70528809 -47.0090332 3.5534668 C-31.36274391 0.57960912 -15.88931954 -0.06050362 0 0 Z " fill="#656FAA" transform="translate(255.625,-0.3125)"/>
<path d="M0 0 C0 58.41 0 116.82 0 177 C-6.6 177 -13.2 177 -20 177 C-20.33 178.65 -20.66 180.3 -21 182 C-21.90243199 184.51934142 -22.83813127 187.00226736 -23.82421875 189.48828125 C-24.26497993 190.61413887 -24.26497993 190.61413887 -24.71464539 191.76274109 C-25.70163549 194.28090213 -26.69455863 196.79668027 -27.6875 199.3125 C-28.39245077 201.10728015 -29.09703094 202.90220591 -29.80126953 204.69726562 C-31.34780183 208.63713724 -32.89693912 212.5759723 -34.44775391 216.51416016 C-37.17357919 223.43784924 -39.88959604 230.36537101 -42.60546875 237.29296875 C-44.52827193 242.19545923 -46.45154921 247.09776357 -48.375 252 C-49.05784561 253.74067245 -49.05784561 253.74067245 -49.75448608 255.51651001 C-56.10643885 271.70319939 -62.52141718 287.86356646 -69 304 C-69.66 304 -70.32 304 -71 304 C-71.45101074 302.84741699 -71.90202148 301.69483398 -72.36669922 300.50732422 C-72.82116173 299.34592171 -72.82116173 299.34592171 -73.2848053 298.16105652 C-73.97884928 296.38738624 -74.6728901 294.61371473 -75.3669281 292.84004211 C-77.35286281 287.7648335 -79.33885763 282.68964842 -81.32495117 277.61450195 C-85.46651087 267.0312224 -89.60732422 256.44765228 -93.74609375 245.86328125 C-102.46671904 223.56336698 -111.20911373 201.27231611 -120 179 C-129.24 178.67 -138.48 178.34 -148 178 C-148 229.48 -148 280.96 -148 334 C-141.07 334 -134.14 334 -127 334 C-127 294.07 -127 254.14 -127 213 C-123.58441577 214.70779211 -122.89724671 218.72088833 -121.55102539 222.13037109 C-121.20752045 222.98447571 -120.8640155 223.83858032 -120.51010132 224.71856689 C-119.36612531 227.56763473 -118.23195064 230.42050281 -117.09765625 233.2734375 C-116.29793892 235.270238 -115.49759007 237.26678569 -114.69664001 239.26309204 C-112.57575696 244.55386145 -110.46301059 249.84784299 -108.35205078 255.14257812 C-106.24625226 260.42102805 -104.13382288 265.69682085 -102.02148438 270.97265625 C-99.57466066 277.08452841 -97.12810412 283.19650405 -94.6847229 289.30975342 C-88.85217885 303.89896513 -82.96328987 318.46369476 -77 333 C-72.05 333.33 -67.1 333.66 -62 334 C-61.67 332.35 -61.34 330.7 -61 329 C-60.40975259 327.32695235 -59.77595259 325.66887757 -59.10839844 324.02514648 C-58.51835777 322.56297195 -58.51835777 322.56297195 -57.91639709 321.07125854 C-57.4850798 320.01520416 -57.05376251 318.95914978 -56.609375 317.87109375 C-56.15674789 316.75268097 -55.70412079 315.63426819 -55.23777771 314.48196411 C-54.00275357 311.43255377 -52.76390832 308.38473178 -51.52318954 305.33763504 C-50.22925963 302.15776591 -48.9395686 298.97617902 -47.6496582 295.79467773 C-46.05163327 291.8536766 -44.45329063 287.91280682 -42.85298157 283.97273254 C-39.41965909 275.51737247 -36.00815104 267.05353686 -32.61462784 258.58212852 C-30.93438233 254.38890252 -29.25063043 250.19708197 -27.56774902 246.00491333 C-26.64839879 243.71200571 -25.73067083 241.41844695 -24.8145752 239.12423706 C-23.54117668 235.93641007 -22.26154641 232.7511534 -20.98046875 229.56640625 C-20.60442001 228.62016388 -20.22837128 227.67392151 -19.84092712 226.69900513 C-19.4940535 225.83999603 -19.14717987 224.98098694 -18.78979492 224.09594727 C-18.34092171 222.97483299 -18.34092171 222.97483299 -17.88298035 221.83106995 C-17 220 -17 220 -15 218 C-15 256.61 -15 295.22 -15 335 C-10.05 335 -5.1 335 0 335 C0 393.41 0 451.82 0 512 C-15.55998569 512 -29.88009619 511.69434492 -45 509 C-45.91185059 508.83902832 -46.82370117 508.67805664 -47.76318359 508.51220703 C-91.36461429 500.53941775 -132.44282799 480.94708129 -166 452 C-166.74507813 451.36578125 -167.49015625 450.7315625 -168.2578125 450.078125 C-181.76279833 438.26698485 -194.43418743 425.51639772 -205 411 C-205.85649066 409.85005169 -206.71326433 408.70031411 -207.5703125 407.55078125 C-213.61034209 399.36065742 -218.99367614 390.85620382 -224 382 C-224.4021875 381.29278809 -224.804375 380.58557617 -225.21875 379.85693359 C-238.2441741 356.72154164 -246.99301461 331.55037591 -252.3125 305.5625 C-252.45985596 304.84360596 -252.60721191 304.12471191 -252.7590332 303.3840332 C-255.73289088 287.73774391 -256.37300362 272.26431954 -256.3125 256.375 C-256.31034485 255.35709381 -256.3081897 254.33918762 -256.30596924 253.29043579 C-256.25629854 238.68136477 -256.00540191 224.34924147 -253 210 C-252.80132324 209.02514648 -252.60264648 208.05029297 -252.39794922 207.04589844 C-242.27732806 158.6640226 -220.3608123 114.67571731 -186 79 C-185.36787598 78.34064453 -184.73575195 77.68128906 -184.08447266 77.00195312 C-174.94002521 67.51369695 -165.64265991 58.7737956 -155 51 C-153.84894983 50.14193848 -152.69790823 49.28386549 -151.546875 48.42578125 C-143.35724019 42.38822604 -134.85461724 37.00542698 -126 32 C-125.29278809 31.5978125 -124.58557617 31.195625 -123.85693359 30.78125 C-97.9229405 16.18018945 -69.33516936 6.81800319 -40 2 C-39.29391602 1.88285645 -38.58783203 1.76571289 -37.86035156 1.64501953 C-25.12404774 -0.37561519 -13.0611289 0 0 0 Z " fill="#4B5896" transform="translate(256,0)"/>
<path d="M0 0 C9.24 0 18.48 0 28 0 C30.56570473 5.13140945 32.9019979 10.01685057 34.8984375 15.34375 C35.16588272 16.04582077 35.43332794 16.74789154 35.70887756 17.47123718 C36.29273398 19.00424001 36.87489333 20.53789004 37.45553589 22.07211304 C39.08359662 26.37108174 40.72730738 30.66405567 42.37109375 34.95703125 C42.9084893 36.36109978 42.9084893 36.36109978 43.45674133 37.79353333 C48.37573728 50.62058781 53.41018041 63.40262489 58.4375 76.1875 C59.13622223 77.96592285 59.13622223 77.96592285 59.84906006 79.78027344 C61.20971705 83.24317516 62.57144483 86.70565365 63.93359375 90.16796875 C64.36470459 91.26474945 64.79581543 92.36153015 65.23999023 93.49154663 C67.28147512 98.6759694 69.33912156 103.85267552 71.43798828 109.01416016 C71.81448013 109.94271317 72.19097198 110.87126617 72.57887268 111.82795715 C73.27911136 113.55078165 73.9837008 115.27184681 74.69346619 116.99076843 C77 122.66813628 77 122.66813628 77 126 C77.66 126 78.32 126 79 126 C79.14332764 125.4652002 79.28665527 124.93040039 79.43432617 124.37939453 C81.81025437 115.98369916 85.07481948 107.96358659 88.3125 99.875 C89.65674494 96.49810965 90.99806599 93.12005878 92.33984375 89.7421875 C92.70140564 88.83321716 93.06296753 87.92424683 93.43548584 86.98773193 C96.50148228 79.27399463 99.53749969 71.54867981 102.56640625 63.8203125 C103.04582169 62.59746552 103.52523712 61.37461853 104.0191803 60.11471558 C105.93819558 55.21924753 107.85693432 50.32367303 109.77334595 45.42718506 C115.72234468 30.2305233 121.78433327 15.08976526 128 0 C136.91 0 145.82 0 155 0 C155 51.48 155 102.96 155 156 C148.07 156 141.14 156 134 156 C134 117.39 134 78.78 134 39 C133.34 39 132.68 39 132 39 C131.86833435 39.73564682 131.7366687 40.47129364 131.60101318 41.22923279 C131.05375015 43.7522032 130.34473778 45.94331413 129.38378906 48.33227539 C129.0504657 49.16698868 128.71714233 50.00170197 128.37371826 50.86170959 C128.00804749 51.76457199 127.64237671 52.66743439 127.265625 53.59765625 C126.87981262 54.56001694 126.49400024 55.52237762 126.09649658 56.51390076 C124.8185092 59.69846375 123.53430862 62.88048164 122.25 66.0625 C121.35708343 68.28371814 120.46451056 70.50507448 119.57226562 72.7265625 C116.72119389 79.8202734 113.86099365 86.91028623 111 94 C110.02014111 96.42950813 109.04032339 98.85903287 108.06054688 101.28857422 C103.09476 113.60026425 98.12455302 125.91016014 93.144104 138.21592712 C90.74829663 144.13823319 88.36942539 150.06708705 86 156 C81.05 156 76.1 156 71 156 C67.33304231 149.02041137 64.42089893 141.8006389 61.51953125 134.4765625 C60.98850505 133.14379929 60.45714019 131.81117098 59.92546082 130.47866821 C58.79987087 127.65601205 57.67631475 124.832559 56.55444336 122.00842285 C53.92599583 115.39207677 51.28721113 108.7798514 48.64947128 102.16720581 C47.76986104 99.96176437 46.89066175 97.75615941 46.01150513 95.55053711 C41.04769278 83.10079469 36.03848214 70.66971704 31 58.25 C30.64765289 57.38127258 30.29530579 56.51254517 29.93228149 55.61749268 C28.67369771 52.51480209 27.41510178 49.41211777 26.15458679 46.31021118 C24.75970468 42.87732305 23.3761922 39.4404805 22 36 C21.67 75.6 21.34 115.2 21 156 C14.07 156 7.14 156 0 156 C0 104.52 0 53.04 0 0 Z " fill="#FCFDFD" transform="translate(108,178)"/>
<path d="M0 0 C1.02416016 -0.00322266 2.04832031 -0.00644531 3.10351562 -0.00976562 C18.302052 0.09706115 31.83175983 4.62322509 42.9375 15.3125 C51.56059345 24.88339036 54.9375 34.46825021 54.9375 47.3125 C48.0075 47.3125 41.0775 47.3125 33.9375 47.3125 C33.751875 45.53875 33.56625 43.765 33.375 41.9375 C32.03170759 34.0815554 28.84792602 28.37725666 22.53515625 23.4296875 C13.12478849 17.42677185 3.9484426 16.3329229 -7.0625 17.3125 C-14.77840097 19.08249377 -21.94194451 23.35323336 -26.22265625 30.15625 C-28.8739663 36.17410723 -29.22771856 43.28278581 -27.40625 49.58203125 C-23.07854683 59.33801728 -13.87112788 63.55654395 -4.44091797 67.42578125 C0.08732667 69.11399563 4.73465932 70.40893356 9.375 71.75 C25.48149243 76.44219423 40.96948344 82.52913334 50.375 97.3125 C56.38640838 108.39869507 57.71995515 118.72076893 54.375 131.0625 C50.68840858 141.69985233 43.69000539 148.81323713 33.9375 154.3125 C17.39748048 161.46668073 -4.29757301 164.07432693 -21.421875 157.50390625 C-22.72898437 156.91416016 -22.72898437 156.91416016 -24.0625 156.3125 C-24.93390625 155.95027344 -25.8053125 155.58804688 -26.703125 155.21484375 C-38.62484669 149.82081323 -48.19243924 141.01736362 -53.31640625 128.8984375 C-54.79007346 123.79075323 -54.8397817 118.60205965 -55.0625 113.3125 C-48.1325 113.3125 -41.2025 113.3125 -34.0625 113.3125 C-33.85625 114.941875 -33.65 116.57125 -33.4375 118.25 C-31.94847577 126.23938517 -28.50492275 131.8723672 -21.875 136.625 C-10.83140664 143.23275003 -0.02768786 144.93889461 12.6875 142.625 C19.29730085 140.84923261 25.85250364 138.34100369 30 132.6875 C33.94674906 125.81251776 34.37651745 116.70194116 32.32421875 109.015625 C27.00320572 98.79552948 16.25068631 94.67859464 5.9375 91.3125 C3.10790428 90.45915431 0.27127471 89.63283535 -2.56713867 88.80932617 C-18.68476443 84.11814991 -35.72062871 78.21941601 -45.03515625 63.11328125 C-50.36039131 52.67682767 -51.9019728 41.73202977 -49.37890625 30.18359375 C-44.95405536 18.45131276 -36.02115343 9.93315779 -24.9453125 4.453125 C-16.47068577 1.10002066 -9.12578045 -0.14412161 0 0 Z " fill="#FCFCFD" transform="translate(348.0625,175.6875)"/>
</svg>
